<?xml version="1.0" encoding="utf-8"?>
<!-- Generator: Adobe Illustrator 23.0.6, SVG Export Plug-In . SVG Version: 6.00 Build 0)  -->
<svg version="1.1" id="Capa_1" xmlns="http://www.w3.org/2000/svg" xmlns:xlink="http://www.w3.org/1999/xlink" x="0px" y="0px"
	 viewBox="0 0 850.39 850.39" style="enable-background:new 0 0 850.39 850.39;" xml:space="preserve">
<style type="text/css">
	.st0{fill:#1F2AA5;}
	.st1{fill-rule:evenodd;clip-rule:evenodd;fill:#A8D42E;}
	.st2{fill:#FFFFFF;}
	.st3{fill:#A8D42E;}
</style>
<g>
	<g>
		<path class="st0" d="M425.2,746.53c-177.19,0-321.34-144.15-321.34-321.34S248.01,103.86,425.2,103.86
			c177.18,0,321.34,144.15,321.34,321.34S602.38,746.53,425.2,746.53z"/>
	</g>
	<g>
		<g>
			<path class="st1" d="M310.23,758.34l5.77-16.68l-3.29-1.16l-1.64-0.58l-0.82-0.29l-0.81-0.31l-6.51-2.48
				c-2.16-0.86-4.3-1.76-6.45-2.63c-0.54-0.22-1.08-0.44-1.61-0.66l-1.6-0.7l-3.19-1.4l-7.15,16.14l3.36,1.47l1.68,0.74
				c0.56,0.24,1.13,0.47,1.7,0.7c2.27,0.92,4.52,1.86,6.8,2.77l6.86,2.61l0.86,0.33l0.87,0.31l1.73,0.61L310.23,758.34z"/>
			<path class="st1" d="M361.1,771.75l3.2-17.36c-9.14-1.65-18.2-3.77-27.17-6.21l-4.65,17.03
				C341.93,767.78,351.47,770.01,361.1,771.75z"/>
			<path class="st1" d="M413.22,777.38l0.59-17.65l-3.48-0.13c-1.16-0.05-2.32-0.07-3.48-0.16l-6.96-0.44
				c-2.32-0.19-4.63-0.41-6.94-0.61l-1.74-0.15c-0.58-0.06-1.15-0.13-1.73-0.19l-3.46-0.4l-2.05,17.54l3.65,0.42
				c0.61,0.07,1.21,0.14,1.82,0.2l1.83,0.16c2.44,0.21,4.87,0.45,7.31,0.64l7.32,0.47c1.22,0.09,2.44,0.12,3.66,0.17L413.22,777.38z
				"/>
		</g>
		<g>
			<path class="st1" d="M177.19,675.33l12.43-12.54c-6.59-6.55-12.92-13.37-18.97-20.44l-13.42,11.47
				C163.59,661.25,170.25,668.43,177.19,675.33z"/>
			<path class="st1" d="M217.18,709.48l10.44-14.24c-7.49-5.5-14.76-11.31-21.79-17.39l-11.58,13.32
				C201.64,697.58,209.29,703.69,217.18,709.48z"/>
			<path class="st1" d="M261.63,737.27l8.22-15.62c-2.05-1.09-4.12-2.15-6.14-3.31l-3.04-1.7c-1.01-0.57-2.03-1.13-3.03-1.73
				l-6-3.55l-5.91-3.69l-9.49,14.89l6.22,3.89l6.31,3.74c1.05,0.63,2.12,1.22,3.19,1.82l3.2,1.79
				C257.29,735.01,259.47,736.13,261.63,737.27z"/>
		</g>
		<g>
			<path class="st1" d="M93.06,542.99l16.63-5.92c-3.11-8.75-5.9-17.63-8.23-26.62l-17.07,4.5
				C86.85,524.43,89.78,533.77,93.06,542.99z"/>
			<path class="st1" d="M114.35,591.09l15.56-8.34l-1.63-3.08l-0.81-1.54c-0.13-0.26-0.27-0.51-0.41-0.77l-0.39-0.78l-3.11-6.24
				l-2.96-6.31c-0.24-0.53-0.5-1.05-0.73-1.58l-0.7-1.6l-1.4-3.19l-16.2,7.01l1.47,3.36l0.74,1.68c0.24,0.56,0.51,1.11,0.77,1.67
				l3.11,6.65l3.27,6.57l0.41,0.82c0.14,0.27,0.28,0.54,0.43,0.81l0.86,1.62L114.35,591.09z"/>
			<path class="st1" d="M142.46,635.34l14.16-10.55l-4.11-5.63c-1.34-1.9-2.65-3.82-3.98-5.72c-0.33-0.48-0.67-0.95-0.99-1.44
				l-0.96-1.46l-1.92-2.91l-0.96-1.46l-0.48-0.73l-0.46-0.74l-1.85-2.96l-14.98,9.34l1.94,3.11l0.49,0.78l0.5,0.77l1.01,1.53
				l2.02,3.06l1.01,1.53c0.34,0.51,0.69,1.01,1.04,1.51c1.4,2.01,2.78,4.03,4.19,6.02L142.46,635.34z"/>
		</g>
		<g>
			<path class="st1" d="M74.83,387.24l17.55,1.89c0.96-9.25,2.39-18.44,4.14-27.56l-17.34-3.35
				C77.35,367.83,75.84,377.51,74.83,387.24z"/>
			<path class="st1" d="M73.11,439.8l17.64-0.72l-0.13-3.48l-0.07-1.74l-0.02-1.74l-0.09-6.97l0.09-6.97
				c0.01-0.58,0.01-1.16,0.03-1.74l0.07-1.74l0.13-3.48l-17.64-0.73l-0.14,3.67l-0.07,1.83c-0.02,0.61-0.02,1.22-0.03,1.83
				l-0.09,7.34l0.09,7.34l0.02,1.83l0.07,1.83L73.11,439.8z"/>
			<path class="st1" d="M79.14,491.88l17.34-3.33l-0.66-3.42c-0.05-0.29-0.11-0.57-0.16-0.86l-0.14-0.86l-0.29-1.72l-0.57-3.44
				l-0.29-1.72c-0.05-0.29-0.09-0.57-0.13-0.86l-0.12-0.86l-0.97-6.9l-0.8-6.92l-17.56,1.87l0.84,7.29l1.02,7.27l0.13,0.91
				c0.04,0.3,0.09,0.61,0.14,0.91l0.3,1.81l0.6,3.62l0.3,1.81l0.15,0.9c0.05,0.3,0.11,0.6,0.17,0.9L79.14,491.88z"/>
		</g>
		<g>
			<path class="st1" d="M126.09,239.05l14.97,9.35c4.93-7.88,10.16-15.57,15.72-23.02l-14.15-10.56
				C136.79,222.65,131.28,230.75,126.09,239.05z"/>
			<path class="st1" d="M101.63,285.61l16.2,7.02l1.4-3.19l0.7-1.6c0.23-0.53,0.49-1.05,0.73-1.58c0.99-2.1,1.96-4.21,2.96-6.31
				l3.11-6.24l0.39-0.78l0.41-0.77l0.81-1.54l1.63-3.08l-15.56-8.34l-1.71,3.24l-0.86,1.62l-0.43,0.81l-0.41,0.82l-3.27,6.57
				c-1.05,2.21-2.08,4.43-3.12,6.64c-0.26,0.56-0.52,1.11-0.77,1.67l-0.74,1.68L101.63,285.61z"/>
			<path class="st1" d="M84.46,335.15l17.07,4.51l0.91-3.36l0.46-1.68l0.23-0.84c0.08-0.28,0.16-0.56,0.25-0.84l1.99-6.68
				c0.16-0.56,0.35-1.11,0.53-1.66l0.54-1.66l1.08-3.31l0.54-1.66l0.58-1.64l1.16-3.29l-16.63-5.93l-1.22,3.46l-0.61,1.73
				l-0.57,1.74l-1.14,3.49l-0.57,1.75c-0.19,0.58-0.39,1.16-0.55,1.75l-2.1,7.03c-0.09,0.29-0.18,0.59-0.26,0.88l-0.24,0.89
				l-0.48,1.77L84.46,335.15z"/>
		</g>
		<g>
			<path class="st1" d="M236.5,127.69l9.48,14.89l5.91-3.69l6-3.55c4.04-2.3,8.08-4.59,12.21-6.72l-8.21-15.63
				c-4.34,2.25-8.61,4.65-12.85,7.08l-6.31,3.74L236.5,127.69z"/>
			<path class="st1" d="M194.34,159.13l11.58,13.33c7.03-6.09,14.3-11.89,21.8-17.39l-10.44-14.24
				C209.39,146.62,201.74,152.73,194.34,159.13z"/>
			<path class="st1" d="M157.43,196.35l13.41,11.48c6.05-7.06,12.39-13.87,18.99-20.42l-12.42-12.55
				C170.46,181.75,163.79,188.92,157.43,196.35z"/>
		</g>
		<g>
			<path class="st1" d="M384.26,75.18l2.04,17.54c4.61-0.57,9.25-0.95,13.88-1.34l6.96-0.44l0.87-0.06l0.87-0.03l1.74-0.07
				l3.48-0.13L413.52,73l-3.67,0.14l-1.83,0.07l-0.92,0.04l-0.92,0.06l-7.32,0.47C393.99,74.17,389.11,74.57,384.26,75.18z"/>
			<path class="st1" d="M332.61,85.15l4.64,17.03c2.24-0.6,4.48-1.24,6.74-1.77l3.38-0.83c1.13-0.27,2.25-0.57,3.39-0.8l6.81-1.49
				l6.84-1.32l-3.2-17.36l-7.21,1.39l-7.17,1.56c-1.2,0.25-2.38,0.56-3.57,0.84l-3.56,0.87C337.33,83.85,334.97,84.52,332.61,85.15z
				"/>
			<path class="st1" d="M283.2,102.69l7.14,16.15l3.19-1.4l1.6-0.7l1.61-0.66l3.22-1.32l1.61-0.66c0.54-0.22,1.07-0.44,1.62-0.65
				l6.51-2.48c0.54-0.21,1.09-0.4,1.64-0.59l1.64-0.58l3.29-1.16l-5.76-16.69l-3.46,1.22l-1.73,0.61c-0.58,0.21-1.16,0.4-1.73,0.62
				l-6.86,2.61c-0.57,0.21-1.14,0.45-1.7,0.68l-1.7,0.69l-3.4,1.39l-1.7,0.7l-1.68,0.73L283.2,102.69z"/>
		</g>
		<g>
			<path class="st1" d="M540.16,92.06l-5.77,16.69l3.29,1.16l1.64,0.58l0.82,0.29l0.81,0.31l6.51,2.48c2.16,0.86,4.3,1.76,6.45,2.63
				c0.54,0.22,1.08,0.44,1.61,0.66l1.6,0.7l3.19,1.4l7.15-16.14l-3.36-1.47l-1.68-0.74c-0.56-0.24-1.13-0.47-1.7-0.7
				c-2.27-0.92-4.52-1.86-6.8-2.77l-6.86-2.61l-0.86-0.33l-0.86-0.31l-1.73-0.61L540.16,92.06z"/>
			<path class="st1" d="M489.29,78.64l-3.2,17.36c9.14,1.65,18.2,3.77,27.17,6.21l4.65-17.03
				C508.46,82.61,498.92,80.38,489.29,78.64z"/>
			<path class="st1" d="M437.17,73.01l-0.59,17.65l3.48,0.13c1.16,0.05,2.32,0.07,3.48,0.16l6.96,0.44
				c0.29,0.02,0.58,0.04,0.87,0.07l0.87,0.08l1.74,0.15l3.47,0.31l1.74,0.15c0.58,0.06,1.15,0.13,1.73,0.19l3.46,0.4l2.05-17.54
				l-3.65-0.42c-0.61-0.07-1.21-0.14-1.82-0.2l-1.83-0.16l-3.65-0.33l-1.83-0.16l-0.91-0.08c-0.3-0.03-0.61-0.05-0.91-0.07
				l-7.32-0.47c-1.22-0.09-2.44-0.12-3.66-0.17L437.17,73.01z"/>
		</g>
		<g>
			<path class="st1" d="M673.2,175.07l-12.43,12.54c6.59,6.55,12.92,13.37,18.97,20.44l13.42-11.47
				C686.8,189.14,680.14,181.96,673.2,175.07z"/>
			<path class="st1" d="M633.21,140.91l-10.44,14.24c7.49,5.5,14.76,11.31,21.79,17.39l11.58-13.32
				C648.75,152.81,641.1,146.7,633.21,140.91z"/>
			<path class="st1" d="M588.76,113.12l-8.22,15.62c2.05,1.09,4.12,2.15,6.14,3.31l3.04,1.7c1.01,0.57,2.03,1.13,3.03,1.73l6,3.55
				l5.91,3.69l9.49-14.89l-6.22-3.89l-6.31-3.74c-1.05-0.63-2.12-1.22-3.19-1.82l-3.2-1.79
				C593.1,115.38,590.92,114.27,588.76,113.12z"/>
		</g>
		<g>
			<path class="st1" d="M757.34,307.4l-16.63,5.92c3.11,8.75,5.9,17.63,8.23,26.62l17.07-4.5
				C763.55,325.97,760.62,316.62,757.34,307.4z"/>
			<path class="st1" d="M736.04,259.3l-15.56,8.34l1.63,3.08l0.81,1.54c0.13,0.26,0.27,0.51,0.41,0.77l0.39,0.78l3.11,6.24
				l2.96,6.31c0.24,0.53,0.5,1.05,0.73,1.58l0.7,1.6l1.4,3.19l16.2-7.01l-1.47-3.36l-0.74-1.68c-0.24-0.56-0.51-1.11-0.77-1.67
				l-3.11-6.65l-3.27-6.57l-0.41-0.82c-0.14-0.27-0.28-0.54-0.43-0.81l-0.86-1.62L736.04,259.3z"/>
			<path class="st1" d="M707.93,215.05l-14.16,10.55l4.11,5.63c1.34,1.9,2.65,3.82,3.98,5.72c0.33,0.48,0.67,0.95,0.99,1.44
				l0.96,1.46l1.92,2.91l0.96,1.46l0.48,0.73l0.46,0.74l1.85,2.96l14.98-9.34l-1.94-3.11l-0.49-0.78l-0.5-0.77l-1.01-1.53
				l-2.02-3.06l-1.01-1.53c-0.34-0.51-0.69-1.01-1.04-1.51c-1.4-2.01-2.78-4.03-4.19-6.02L707.93,215.05z"/>
		</g>
		<g>
			<path class="st1" d="M775.56,463.15l-17.55-1.89c-0.96,9.25-2.39,18.44-4.14,27.56l17.34,3.35
				C773.05,482.56,774.55,472.88,775.56,463.15z"/>
			<path class="st1" d="M777.28,410.59l-17.64,0.72l0.13,3.48l0.07,1.74l0.02,1.74l0.09,6.97l-0.09,6.97
				c-0.01,0.58-0.01,1.16-0.03,1.74l-0.07,1.74l-0.13,3.48l17.64,0.73l0.14-3.67l0.07-1.83c0.02-0.61,0.02-1.22,0.03-1.83l0.09-7.34
				l-0.09-7.34l-0.02-1.83l-0.07-1.83L777.28,410.59z"/>
			<path class="st1" d="M771.25,358.51l-17.34,3.33l0.66,3.42c0.05,0.29,0.11,0.57,0.16,0.86l0.14,0.86l0.28,1.72l0.57,3.44
				l0.29,1.72c0.05,0.29,0.09,0.57,0.13,0.86l0.12,0.86l0.97,6.9l0.8,6.92l17.56-1.87l-0.84-7.29l-1.02-7.27l-0.13-0.91
				c-0.04-0.3-0.09-0.61-0.14-0.91l-0.3-1.81l-0.6-3.62l-0.3-1.81l-0.15-0.9c-0.05-0.3-0.11-0.6-0.17-0.9L771.25,358.51z"/>
		</g>
		<g>
			<path class="st1" d="M724.3,611.35l-14.97-9.35c-4.93,7.88-10.16,15.57-15.72,23.02l14.15,10.56
				C713.61,627.74,719.12,619.64,724.3,611.35z"/>
			<path class="st1" d="M748.76,564.78l-16.2-7.02l-1.4,3.19l-0.7,1.6c-0.23,0.53-0.49,1.05-0.73,1.58
				c-0.99,2.1-1.96,4.21-2.96,6.31l-3.11,6.24l-0.39,0.78l-0.41,0.77l-0.81,1.54l-1.63,3.08l15.56,8.34l1.71-3.24l0.86-1.62
				l0.43-0.81l0.41-0.82l3.27-6.57c1.05-2.21,2.08-4.43,3.12-6.64c0.26-0.56,0.52-1.11,0.77-1.67l0.74-1.68L748.76,564.78z"/>
			<path class="st1" d="M765.93,515.24l-17.07-4.51l-0.91,3.36l-0.46,1.68l-0.23,0.84c-0.08,0.28-0.16,0.56-0.25,0.84l-1.99,6.68
				c-0.16,0.56-0.35,1.11-0.53,1.66l-0.54,1.66l-1.08,3.31l-0.54,1.66l-0.58,1.64l-1.16,3.29l16.63,5.93l1.22-3.46l0.61-1.73
				l0.57-1.74l1.14-3.49l0.57-1.74c0.19-0.58,0.39-1.16,0.55-1.75l2.1-7.03c0.09-0.29,0.18-0.59,0.26-0.88l0.24-0.89l0.48-1.77
				L765.93,515.24z"/>
		</g>
		<g>
			<path class="st1" d="M613.9,722.71l-9.48-14.89l-5.91,3.69l-6,3.55c-4.04,2.3-8.08,4.59-12.21,6.72l8.21,15.63
				c4.34-2.25,8.61-4.65,12.85-7.08l6.31-3.74L613.9,722.71z"/>
			<path class="st1" d="M656.05,691.26l-11.58-13.33c-7.03,6.09-14.3,11.89-21.8,17.39l10.44,14.24
				C641,703.77,648.65,697.66,656.05,691.26z"/>
			<path class="st1" d="M692.97,654.05l-13.41-11.48c-6.05,7.06-12.39,13.87-18.99,20.42l12.42,12.55
				C679.93,668.64,686.6,661.47,692.97,654.05z"/>
		</g>
		<g>
			<path class="st1" d="M466.14,775.22l-2.04-17.54c-4.61,0.57-9.25,0.95-13.88,1.34l-6.96,0.44l-0.87,0.06l-0.87,0.03l-1.74,0.07
				l-3.48,0.13l0.58,17.65l3.67-0.14l1.83-0.07l0.92-0.04l0.92-0.06l7.32-0.47C456.4,776.22,461.28,775.82,466.14,775.22z"/>
			<path class="st1" d="M517.78,765.24l-4.64-17.03c-2.24,0.6-4.48,1.24-6.74,1.77l-3.38,0.83c-1.13,0.27-2.25,0.57-3.39,0.8
				l-6.81,1.49l-6.84,1.32l3.2,17.36l7.21-1.39l7.17-1.56c1.2-0.25,2.38-0.56,3.57-0.84l3.56-0.87
				C513.07,766.55,515.42,765.88,517.78,765.24z"/>
			<path class="st1" d="M567.19,747.7l-7.14-16.15l-3.19,1.4l-1.6,0.7l-1.61,0.66l-3.23,1.32l-1.61,0.66
				c-0.54,0.22-1.07,0.44-1.62,0.65l-6.51,2.48c-0.54,0.21-1.09,0.4-1.64,0.59l-1.64,0.58l-3.29,1.16l5.76,16.69l3.46-1.22
				l1.73-0.61c0.58-0.21,1.16-0.4,1.73-0.62l6.86-2.61c0.57-0.21,1.14-0.45,1.7-0.68l1.7-0.69l3.4-1.39l1.7-0.7l1.68-0.73
				L567.19,747.7z"/>
		</g>
	</g>
	<path class="st2" d="M229.63,391.61l-2.82-7.41H202.8l-2.82,7.58c-1.1,2.96-2.04,4.95-2.82,5.98c-0.78,1.03-2.05,1.55-3.83,1.55
		c-1.51,0-2.84-0.55-3.99-1.65c-1.15-1.1-1.73-2.35-1.73-3.75c0-0.81,0.14-1.64,0.4-2.5c0.27-0.86,0.71-2.05,1.33-3.59l15.11-38.36
		c0.43-1.1,0.95-2.42,1.55-3.97c0.61-1.54,1.25-2.83,1.93-3.85c0.69-1.02,1.59-1.85,2.7-2.48c1.11-0.63,2.49-0.95,4.13-0.95
		c1.67,0,3.06,0.32,4.17,0.95c1.11,0.63,2.01,1.45,2.7,2.44c0.69,0.99,1.26,2.06,1.74,3.2c0.47,1.14,1.07,2.67,1.79,4.57
		l15.43,38.12c1.21,2.9,1.81,5.01,1.81,6.33c0,1.37-0.57,2.63-1.71,3.77c-1.14,1.14-2.52,1.71-4.13,1.71c-0.94,0-1.75-0.17-2.42-0.5
		c-0.67-0.34-1.23-0.79-1.69-1.37c-0.46-0.58-0.95-1.46-1.47-2.66C230.46,393.58,230.01,392.52,229.63,391.61z M205.94,375.21h17.65
		l-8.9-24.38L205.94,375.21z"/>
	<path class="st2" d="M278.99,393.1v-1.41c-1.32,1.67-2.7,3.06-4.15,4.19c-1.45,1.13-3.04,1.97-4.75,2.52
		c-1.72,0.55-3.68,0.83-5.88,0.83c-2.66,0-5.04-0.55-7.15-1.65c-2.11-1.1-3.74-2.62-4.89-4.55c-1.37-2.34-2.05-5.69-2.05-10.07
		v-21.8c0-2.2,0.5-3.85,1.49-4.94c0.99-1.09,2.31-1.63,3.95-1.63c1.67,0,3.01,0.55,4.03,1.65c1.02,1.1,1.53,2.74,1.53,4.92v17.61
		c0,2.55,0.22,4.69,0.64,6.43c0.43,1.73,1.2,3.09,2.32,4.07c1.12,0.98,2.63,1.47,4.54,1.47c1.85,0,3.6-0.55,5.24-1.65
		c1.64-1.1,2.84-2.54,3.59-4.31c0.62-1.56,0.93-4.97,0.93-10.23v-13.38c0-2.18,0.51-3.81,1.53-4.92c1.02-1.1,2.35-1.65,3.99-1.65
		s2.96,0.54,3.95,1.63c0.99,1.09,1.49,2.73,1.49,4.94v31.87c0,2.1-0.48,3.67-1.43,4.71c-0.96,1.05-2.18,1.57-3.69,1.57
		c-1.51,0-2.75-0.54-3.73-1.63C279.48,396.58,278.99,395.06,278.99,393.1z"/>
	<path class="st2" d="M300.87,355.54h1.21v-6.61c0-1.77,0.05-3.16,0.14-4.17c0.1-1.01,0.36-1.87,0.79-2.6
		c0.43-0.75,1.05-1.36,1.85-1.83c0.81-0.47,1.71-0.71,2.7-0.71c1.4,0,2.66,0.52,3.79,1.57c0.75,0.7,1.23,1.55,1.43,2.56
		c0.21,1.01,0.3,2.44,0.3,4.29v7.49h4.03c1.56,0,2.75,0.37,3.56,1.11c0.82,0.74,1.23,1.69,1.23,2.84c0,1.48-0.59,2.51-1.75,3.1
		c-1.17,0.59-2.84,0.89-5.02,0.89h-2.05v20.23c0,1.72,0.06,3.04,0.18,3.97c0.12,0.93,0.45,1.68,0.97,2.26
		c0.53,0.58,1.38,0.87,2.56,0.87c0.64,0,1.52-0.11,2.62-0.34c1.1-0.23,1.96-0.34,2.58-0.34c0.89,0,1.69,0.36,2.4,1.07
		c0.71,0.71,1.07,1.59,1.07,2.64c0,1.77-0.97,3.13-2.9,4.07c-1.93,0.94-4.71,1.41-8.34,1.41c-3.44,0-6.04-0.58-7.82-1.73
		c-1.77-1.15-2.93-2.75-3.48-4.79c-0.55-2.04-0.83-4.77-0.83-8.18v-21.11h-1.45c-1.59,0-2.79-0.38-3.63-1.13
		c-0.83-0.75-1.25-1.71-1.25-2.86c0-1.15,0.44-2.1,1.31-2.84C297.94,355.91,299.21,355.54,300.87,355.54z"/>
	<path class="st2" d="M412.69,379.64h-21.52c0.03,2.5,0.53,4.7,1.51,6.61c0.98,1.91,2.28,3.34,3.9,4.31
		c1.63,0.97,3.42,1.45,5.38,1.45c1.31,0,2.52-0.15,3.61-0.46c1.08-0.31,2.14-0.79,3.16-1.45c1.02-0.66,1.96-1.36,2.82-2.12
		c0.86-0.75,1.97-1.77,3.34-3.06c0.56-0.48,1.37-0.73,2.42-0.73c1.13,0,2.04,0.31,2.74,0.93c0.7,0.62,1.05,1.49,1.05,2.62
		c0,0.99-0.39,2.16-1.17,3.49c-0.78,1.33-1.95,2.61-3.53,3.83c-1.57,1.22-3.55,2.24-5.92,3.04c-2.38,0.81-5.11,1.21-8.2,1.21
		c-7.07,0-12.56-2.01-16.48-6.04c-3.92-4.03-5.88-9.49-5.88-16.4c0-3.25,0.48-6.27,1.45-9.05c0.97-2.78,2.38-5.16,4.23-7.15
		c1.85-1.99,4.14-3.51,6.85-4.57c2.71-1.06,5.72-1.59,9.03-1.59c4.3,0,7.99,0.91,11.06,2.72c3.08,1.81,5.38,4.16,6.91,7.03
		c1.53,2.88,2.3,5.8,2.3,8.78c0,2.77-0.79,4.56-2.38,5.38C417.79,379.23,415.56,379.64,412.69,379.64z M391.17,373.4h19.95
		c-0.27-3.76-1.28-6.57-3.04-8.44c-1.76-1.87-4.08-2.8-6.95-2.8c-2.74,0-4.99,0.95-6.75,2.84
		C392.61,366.89,391.55,369.69,391.17,373.4z"/>
	<path class="st2" d="M463.78,384.92c0,3.04-0.74,5.64-2.22,7.8c-1.48,2.16-3.66,3.8-6.55,4.92c-2.89,1.11-6.4,1.67-10.54,1.67
		c-3.95,0-7.33-0.6-10.15-1.81c-2.82-1.21-4.9-2.72-6.25-4.53c-1.34-1.81-2.01-3.63-2.01-5.46c0-1.21,0.43-2.24,1.29-3.1
		c0.86-0.86,1.95-1.29,3.26-1.29c1.15,0,2.04,0.28,2.66,0.85c0.62,0.56,1.21,1.36,1.77,2.38c1.13,1.96,2.48,3.43,4.05,4.39
		c1.58,0.97,3.71,1.45,6.43,1.45c2.2,0,4.01-0.49,5.42-1.47c1.41-0.98,2.12-2.1,2.12-3.36c0-1.93-0.73-3.34-2.2-4.23
		c-1.46-0.89-3.87-1.73-7.23-2.54c-3.79-0.94-6.87-1.93-9.25-2.96c-2.38-1.03-4.28-2.4-5.7-4.09c-1.42-1.69-2.14-3.77-2.14-6.25
		c0-2.2,0.66-4.28,1.97-6.25c1.32-1.96,3.26-3.53,5.82-4.69c2.57-1.17,5.66-1.75,9.29-1.75c2.85,0,5.41,0.3,7.68,0.89
		c2.27,0.59,4.16,1.38,5.68,2.38c1.52,0.99,2.67,2.1,3.47,3.3c0.79,1.21,1.19,2.39,1.19,3.55c0,1.26-0.42,2.3-1.27,3.1
		c-0.84,0.81-2.05,1.21-3.6,1.21c-1.13,0-2.09-0.32-2.88-0.97c-0.79-0.64-1.7-1.61-2.72-2.9c-0.83-1.07-1.81-1.93-2.94-2.58
		c-1.13-0.64-2.66-0.97-4.59-0.97c-1.99,0-3.64,0.42-4.96,1.27c-1.31,0.85-1.97,1.9-1.97,3.16c0,1.16,0.48,2.1,1.45,2.84
		c0.97,0.74,2.27,1.35,3.91,1.83c1.64,0.48,3.89,1.08,6.77,1.77c3.41,0.83,6.2,1.83,8.36,2.98c2.16,1.16,3.8,2.52,4.92,4.09
		C463.22,381.11,463.78,382.9,463.78,384.92z"/>
	<path class="st2" d="M512.54,385.68c0,1.37-0.41,2.84-1.23,4.39c-0.82,1.56-2.07,3.04-3.74,4.45c-1.68,1.41-3.79,2.55-6.35,3.4
		c-2.55,0.86-5.43,1.29-8.62,1.29c-6.8,0-12.1-1.98-15.92-5.94c-3.81-3.96-5.72-9.27-5.72-15.94c0-4.51,0.87-8.5,2.62-11.97
		c1.75-3.47,4.27-6.14,7.58-8.04c3.3-1.89,7.25-2.84,11.85-2.84c2.85,0,5.46,0.42,7.84,1.25c2.38,0.83,4.4,1.91,6.04,3.22
		c1.66,1.32,2.92,2.72,3.79,4.21c0.88,1.49,1.31,2.88,1.31,4.17c0,1.32-0.49,2.43-1.47,3.34c-0.98,0.91-2.17,1.37-3.56,1.37
		c-0.91,0-1.67-0.23-2.27-0.71c-0.61-0.47-1.29-1.23-2.04-2.28c-1.34-2.04-2.75-3.57-4.21-4.59c-1.46-1.02-3.32-1.53-5.58-1.53
		c-3.25,0-5.87,1.27-7.86,3.81c-1.99,2.54-2.98,6.01-2.98,10.42c0,2.07,0.26,3.97,0.77,5.7c0.51,1.73,1.25,3.21,2.22,4.43
		c0.97,1.22,2.14,2.15,3.51,2.78c1.37,0.63,2.88,0.95,4.51,0.95c2.2,0,4.09-0.51,5.66-1.53c1.58-1.02,2.96-2.58,4.17-4.67
		c0.67-1.23,1.4-2.2,2.18-2.9c0.78-0.7,1.73-1.05,2.86-1.05c1.34,0,2.46,0.51,3.34,1.53C512.09,383.44,512.54,384.53,512.54,385.68z
		"/>
	<path class="st2" d="M571.97,392.62v-47.71c0-2.2,0.49-3.87,1.47-5c0.98-1.13,2.3-1.69,3.97-1.69c1.67,0,3.01,0.56,4.03,1.67
		c1.02,1.12,1.53,2.79,1.53,5.02v47.71c0,2.23-0.52,3.9-1.55,5.02c-1.03,1.11-2.37,1.67-4.01,1.67c-1.61,0-2.92-0.58-3.93-1.73
		C572.47,396.42,571.97,394.77,571.97,392.62z"/>
	<path class="st2" d="M625.04,379.64h-21.52c0.03,2.5,0.53,4.7,1.51,6.61c0.98,1.91,2.28,3.34,3.9,4.31
		c1.63,0.97,3.42,1.45,5.38,1.45c1.32,0,2.52-0.15,3.61-0.46c1.08-0.31,2.14-0.79,3.16-1.45c1.02-0.66,1.96-1.36,2.82-2.12
		c0.86-0.75,1.97-1.77,3.34-3.06c0.56-0.48,1.37-0.73,2.42-0.73c1.13,0,2.04,0.31,2.74,0.93c0.7,0.62,1.05,1.49,1.05,2.62
		c0,0.99-0.39,2.16-1.17,3.49c-0.78,1.33-1.95,2.61-3.53,3.83c-1.57,1.22-3.55,2.24-5.92,3.04c-2.38,0.81-5.11,1.21-8.2,1.21
		c-7.07,0-12.56-2.01-16.48-6.04c-3.92-4.03-5.88-9.49-5.88-16.4c0-3.25,0.48-6.27,1.45-9.05c0.97-2.78,2.38-5.16,4.23-7.15
		c1.85-1.99,4.14-3.51,6.85-4.57c2.71-1.06,5.72-1.59,9.03-1.59c4.3,0,7.99,0.91,11.06,2.72c3.08,1.81,5.38,4.16,6.91,7.03
		c1.53,2.88,2.3,5.8,2.3,8.78c0,2.77-0.79,4.56-2.38,5.38C630.14,379.23,627.91,379.64,625.04,379.64z M603.52,373.4h19.95
		c-0.27-3.76-1.28-6.57-3.04-8.44c-1.76-1.87-4.08-2.8-6.95-2.8c-2.74,0-4.99,0.95-6.75,2.84
		C604.96,366.89,603.9,369.69,603.52,373.4z"/>
	<path class="st2" d="M678.79,384.92c0,3.04-0.74,5.64-2.22,7.8c-1.48,2.16-3.66,3.8-6.55,4.92c-2.89,1.11-6.4,1.67-10.54,1.67
		c-3.95,0-7.33-0.6-10.15-1.81c-2.82-1.21-4.9-2.72-6.25-4.53c-1.34-1.81-2.01-3.63-2.01-5.46c0-1.21,0.43-2.24,1.29-3.1
		c0.86-0.86,1.95-1.29,3.26-1.29c1.15,0,2.04,0.28,2.66,0.85c0.62,0.56,1.21,1.36,1.77,2.38c1.13,1.96,2.48,3.43,4.05,4.39
		c1.58,0.97,3.71,1.45,6.43,1.45c2.2,0,4.01-0.49,5.42-1.47c1.41-0.98,2.12-2.1,2.12-3.36c0-1.93-0.73-3.34-2.2-4.23
		c-1.46-0.89-3.87-1.73-7.23-2.54c-3.79-0.94-6.87-1.93-9.25-2.96c-2.38-1.03-4.28-2.4-5.7-4.09c-1.42-1.69-2.14-3.77-2.14-6.25
		c0-2.2,0.66-4.28,1.97-6.25c1.32-1.96,3.26-3.53,5.82-4.69c2.57-1.17,5.66-1.75,9.29-1.75c2.85,0,5.41,0.3,7.68,0.89
		c2.27,0.59,4.16,1.38,5.68,2.38c1.52,0.99,2.67,2.1,3.47,3.3c0.79,1.21,1.19,2.39,1.19,3.55c0,1.26-0.42,2.3-1.27,3.1
		c-0.84,0.81-2.05,1.21-3.6,1.21c-1.13,0-2.09-0.32-2.88-0.97c-0.79-0.64-1.7-1.61-2.72-2.9c-0.83-1.07-1.81-1.93-2.94-2.58
		c-1.13-0.64-2.66-0.97-4.59-0.97c-1.99,0-3.64,0.42-4.96,1.27c-1.32,0.85-1.97,1.9-1.97,3.16c0,1.16,0.48,2.1,1.45,2.84
		c0.97,0.74,2.27,1.35,3.91,1.83c1.64,0.48,3.89,1.08,6.77,1.77c3.41,0.83,6.2,1.83,8.36,2.98c2.16,1.16,3.8,2.52,4.92,4.09
		C678.23,381.11,678.79,382.9,678.79,384.92z"/>
	<g>
		<path class="st3" d="M286.11,525.31c-3.32-5.44-7.15-10.64-11.38-15.46c-3.15-3.59-6.46-6.57-9.88-8.91
			c9.15-2.54,16.24-6.43,21.12-11.59c5.68-6.01,8.55-14.11,8.55-24.07c0-4.86-0.85-9.52-2.52-13.85c-1.68-4.37-4.17-8.25-7.41-11.55
			c-3.22-3.29-7-5.86-11.17-7.61c-3.46-1.58-7.4-2.65-11.7-3.16c-4.19-0.5-9.28-0.75-15.11-0.75h-42.1
			c-6.05,0-10.55,1.44-13.39,4.28c-2.83,2.84-4.27,7.34-4.27,13.39v98.33c0,5.58,1.29,9.94,3.82,12.93
			c2.62,3.08,6.31,4.65,10.97,4.65c4.33,0,7.91-1.48,10.65-4.41c2.69-2.9,4.06-7.33,4.06-13.17v-39.25h7.26
			c4.34,0,7.96,0.57,10.75,1.7c2.74,1.1,5.52,3.23,8.26,6.31c2.84,3.21,6.13,7.98,9.79,14.2l10.37,17.26
			c2.49,4.15,4.4,7.21,5.85,9.33c1.53,2.26,3.4,4.16,5.56,5.65c2.28,1.57,5.09,2.37,8.35,2.37c2.72,0,5.17-0.55,7.28-1.64
			c2.14-1.1,3.85-2.63,5.08-4.54c1.26-1.95,1.9-3.96,1.9-6c0-1.92-0.92-4.98-2.89-9.63C292.06,535.74,289.44,530.77,286.11,525.31z
			 M264.69,466.93c0,4.06-0.98,7.26-2.92,9.5c-1.98,2.29-4.94,3.94-8.79,4.92c-4.09,1.03-9.22,1.56-15.26,1.56h-21.38v-31.52h22.08
			c10.71,0,15.25,0.96,17.17,1.78c2.89,1.21,5.08,2.97,6.69,5.4C263.88,460.95,264.69,463.77,264.69,466.93z"/>
		<path class="st3" d="M392.4,472.03c-4.52-4.64-10.02-8.27-16.35-10.77c-6.31-2.5-13.4-3.76-21.09-3.76
			c-7.57,0-14.61,1.25-20.91,3.71c-6.32,2.47-11.79,6.05-16.26,10.64c-4.46,4.59-7.92,10.18-10.3,16.62
			c-2.37,6.41-3.56,13.55-3.56,21.23c0,7.63,1.18,14.7,3.52,21.01c2.35,6.36,5.85,11.95,10.39,16.61
			c4.54,4.67,9.99,8.31,16.19,10.82c6.19,2.5,13.23,3.77,20.93,3.77c7.76,0,14.86-1.25,21.09-3.72c6.26-2.47,11.73-6.08,16.26-10.73
			c4.52-4.65,8.01-10.27,10.39-16.71c2.37-6.41,3.56-13.5,3.56-21.05c0-7.63-1.18-14.71-3.52-21.06
			C400.39,482.27,396.92,476.68,392.4,472.03z M377.65,509.71c0,9.51-2.11,17-6.27,22.28c-4.1,5.23-9.48,7.77-16.43,7.77
			c-4.54,0-8.52-1.18-11.84-3.51c-3.34-2.35-5.96-5.81-7.78-10.28c-1.86-4.58-2.81-10.05-2.81-16.25c0-6.26,0.96-11.79,2.85-16.44
			c1.84-4.53,4.48-7.98,7.84-10.27c3.36-2.28,7.3-3.44,11.73-3.44c6.96,0,12.33,2.52,16.44,7.72
			C375.55,492.54,377.65,500.08,377.65,509.71z"/>
		<path class="st3" d="M436.12,420.68c-4.29,0-7.77,1.5-10.34,4.46c-2.51,2.87-3.78,7.07-3.78,12.47v107.38
			c0,5.28,1.3,9.45,3.86,12.39c2.63,3.01,6.08,4.54,10.25,4.54c4.22,0,7.71-1.47,10.4-4.36c2.65-2.85,3.99-7.08,3.99-12.57V437.61
			c0-5.48-1.32-9.7-3.93-12.56C443.92,422.15,440.4,420.68,436.12,420.68z"/>
		<path class="st3" d="M561.15,525.69c0.07-4.85,0.1-9.27,0.14-13.52c0.03-4.05,0.04-8.98,0.04-14.8c0-9.42-1.36-17.12-4.03-22.91
			c-2.76-5.97-7.53-10.4-14.18-13.15c-6.44-2.65-15.32-4-26.38-4c-9.93,0-18.38,1.39-25.11,4.14c-6.82,2.77-11.93,6.4-15.21,10.76
			c-3.32,4.42-5.01,9.08-5.01,13.82c0,3.33,1.24,6.11,3.67,8.25c2.37,2.09,5.21,3.14,8.45,3.14c3.7,0,6.14-0.77,7.47-2.35
			c0.98-1.17,2.6-3.5,4.94-7.12c2.09-3.23,4.61-5.67,7.49-7.27c2.89-1.59,7.36-2.4,13.29-2.4c6.66,0,11.02,1.29,12.97,3.84
			c1.91,2.51,3.08,6.49,3.48,11.85c-4.64,1.33-8.98,2.48-12.94,3.42c-4.39,1.05-9.6,2.19-15.95,3.48
			c-6.26,1.28-10.18,2.1-11.72,2.46c-7.86,1.71-14.14,5.14-18.69,10.19c-4.59,5.1-6.92,11.35-6.92,18.58
			c0,5.35,1.4,10.37,4.16,14.93c2.77,4.58,6.76,8.24,11.85,10.89c5.05,2.64,10.97,3.98,17.6,3.98c7.16,0,13.73-1.22,19.54-3.64
			c5.21-2.17,10.64-5.36,16.15-9.47c2.48,3.86,4.81,6.81,7.08,9c2.82,2.73,5.79,4.11,8.83,4.11c3.48,0,6.63-1.21,9.34-3.6
			c2.81-2.45,4.23-5.26,4.23-8.35c0-1.05-0.25-3.26-2.39-10.3C561.9,534.82,561.15,530.11,561.15,525.69z M533.28,512.86v0.92
			c0,8.2-1.04,14.1-3.11,17.57c-1.75,3.05-4.56,5.6-8.36,7.56c-3.85,2-8.12,3.01-12.69,3.01c-4.15,0-7.38-1.13-9.88-3.45
			c-2.46-2.27-3.66-4.95-3.66-8.19c0-3.07,0.97-5.37,2.96-7.04c2.2-1.84,4.51-3.09,6.89-3.7c2.55-0.67,7.23-1.73,14.29-3.25
			C525.24,515.12,529.78,513.97,533.28,512.86z"/>
		<path class="st3" d="M673.23,485.23c-0.52-3.72-1.66-7.23-3.35-10.36c-2.7-5.53-6.84-9.87-12.29-12.88
			c-5.4-2.99-11.6-4.5-18.41-4.5c-6.98,0-13.27,1.43-18.69,4.25c-4.12,2.15-8.01,5.24-11.63,9.22c-0.21-2.38-0.78-4.49-1.7-6.29
			c-1.22-2.36-2.88-4.17-4.94-5.39c-2.04-1.19-4.34-1.8-6.84-1.8c-4.11,0-7.42,1.39-9.84,4.12c-2.36,2.67-3.55,6.64-3.55,11.81
			v71.56c0,5.29,1.32,9.46,3.92,12.4c2.66,3.01,6.09,4.53,10.2,4.53c4.22,0,7.71-1.47,10.4-4.36c2.65-2.85,3.99-7.08,3.99-12.57
			v-31.02c0-9.85,0.58-16.61,1.7-20.02c1.56-4.22,4.03-7.58,7.33-9.97c3.33-2.41,6.92-3.58,10.96-3.58c6.07,0,9.96,1.79,11.9,5.48
			c2.11,4.03,3.18,10.04,3.18,17.86v41.27c0,5.28,1.32,9.45,3.92,12.4c2.66,3.01,6.15,4.53,10.38,4.53c4.16,0,7.61-1.49,10.24-4.44
			c2.58-2.88,3.88-7.08,3.88-12.49v-46.07C673.97,493.46,673.72,488.86,673.23,485.23z"/>
	</g>
	<g>
		<g>
			<path class="st3" d="M473.03,241.46c0,0-51.89-4.38-78.15,41.26c0,0-10,10.63-27.51,15c-17.5,4.38-35.63,25.01-38.76,46.26H559.3
				v-17.7c0-17.06-4.81-33.92-14.58-47.91C532.25,260.51,510.22,241.46,473.03,241.46z M463.96,289.44l-54.7,0.16
				c21.26-35.63,57.52-33.76,57.52-33.76L463.96,289.44z M473.65,289.59l3.13-33.78c41.46-2.54,56.26,33.78,56.26,33.78H473.65z"/>
		</g>
		
			<ellipse transform="matrix(0.2286 -0.9735 0.9735 0.2286 -98.124 632.4506)" class="st3" cx="350.02" cy="378.14" rx="24.69" ry="24.69"/>
		
			<ellipse transform="matrix(0.7071 -0.7071 0.7071 0.7071 -108.9749 493.1973)" class="st3" cx="540.85" cy="378.14" rx="24.69" ry="24.69"/>
	</g>
</g>
</svg>
